<svg width="28" height="28" viewBox="0 0 28 28" fill="none" xmlns="http://www.w3.org/2000/svg">
<rect x="1" y="1" width="26" height="26" rx="9" fill="#6085FF"/>
<path d="M14 4.83325L6.5 8.16658V13.1666C6.5 17.7916 9.7 22.1166 14 23.1666C18.3 22.1166 21.5 17.7916 21.5 13.1666V8.16658L14 4.83325ZM19.8333 13.1666C19.8333 16.9333 17.35 20.4083 14 21.4416C10.65 20.4083 8.16667 16.9333 8.16667 13.1666V9.24992L14 6.65825L19.8333 9.24992V13.1666ZM10.175 13.6583L9 14.8333L12.3333 18.1666L19 11.4999L17.825 10.3166L12.3333 15.8083L10.175 13.6583Z" fill="white"/>
<rect x="1" y="1" width="26" height="26" rx="9" stroke="#BFCEFE" stroke-width="2"/>
</svg>
