<svg width="28" height="28" viewBox="0 0 28 28" fill="none" xmlns="http://www.w3.org/2000/svg">
<rect x="1" y="1" width="26" height="26" rx="9" fill="#6085FF"/>
<g clip-path="url(#clip0_21030_14524)">
<path fill-rule="evenodd" clip-rule="evenodd" d="M17.6064 21.959V14.5707L24 10.8794V17.9848C24 18.1642 23.9104 18.3194 23.755 18.4091L17.6064 21.959ZM9.91531 18.287H4.75664C4.33879 18.287 4 17.9482 4 17.5303C4 17.1125 4.33879 16.7737 4.75664 16.7737H9.8884C10.7757 16.7737 10.7757 15.3566 9.8884 15.3566H6.80457C6.38672 15.3566 6.04789 15.0178 6.04789 14.5999C6.04789 14.1821 6.38672 13.8433 6.80457 13.8433H9.21652C10.1039 13.8433 10.1039 12.4262 9.21652 12.4262H4.75668C4.33883 12.4262 4.00004 12.0874 4.00004 11.6695C4.00004 11.2517 4.33883 10.9129 4.75668 10.9129H9.93981L16.2755 14.5709V21.959L9.91531 18.287ZM10.5425 9.72805L16.9409 13.4221L23.3393 9.72801L16.9532 6.04102H12.7632C12.3454 6.04102 12.0066 6.3798 12.0066 6.79766C12.0066 7.21551 12.3454 7.5543 12.7632 7.5543H13.6487C13.73 7.5543 13.7982 7.6066 13.8192 7.68516C13.8402 7.76371 13.8074 7.84309 13.737 7.88379L10.5425 9.72805ZM10.1783 6.04102C10.5962 6.04102 10.935 6.3798 10.935 6.79766C10.935 7.21551 10.5962 7.5543 10.1783 7.5543H5.57922C5.16137 7.5543 4.82254 7.21551 4.82254 6.79766C4.82254 6.3798 5.16133 6.04102 5.57922 6.04102H10.1783Z" fill="white"/>
</g>
<rect x="1" y="1" width="26" height="26" rx="9" stroke="#BFCEFE" stroke-width="2"/>
<defs>
<clipPath id="clip0_21030_14524">
<rect width="20" height="20" fill="white" transform="translate(4 4)"/>
</clipPath>
</defs>
</svg>
