<svg width="24" height="24" viewBox="0 0 24 24" fill="none" xmlns="http://www.w3.org/2000/svg">
<rect width="24" height="24" rx="8" fill="#E5E7EB"/>
<g clip-path="url(#clip0_21030_12485)">
<path fill-rule="evenodd" clip-rule="evenodd" d="M15.6064 19.959V12.5707L22 8.87937V15.9848C22 16.1642 21.9104 16.3194 21.755 16.4091L15.6064 19.959ZM7.91531 16.287H2.75664C2.33879 16.287 2 15.9482 2 15.5303C2 15.1125 2.33879 14.7737 2.75664 14.7737H7.8884C8.77574 14.7737 8.77574 13.3566 7.8884 13.3566H4.80457C4.38672 13.3566 4.04789 13.0178 4.04789 12.5999C4.04789 12.1821 4.38672 11.8433 4.80457 11.8433H7.21652C8.10387 11.8433 8.10387 10.4262 7.21652 10.4262H2.75668C2.33883 10.4262 2.00004 10.0874 2.00004 9.66953C2.00004 9.25168 2.33883 8.91289 2.75668 8.91289H7.93981L14.2755 12.5709V19.959L7.91531 16.287ZM8.54254 7.72805L14.9409 11.4221L21.3393 7.72801L14.9532 4.04102H10.7632C10.3454 4.04102 10.0066 4.3798 10.0066 4.79766C10.0066 5.21551 10.3454 5.5543 10.7632 5.5543H11.6487C11.73 5.5543 11.7982 5.6066 11.8192 5.68516C11.8402 5.76371 11.8074 5.84309 11.737 5.88379L8.54254 7.72805ZM8.17832 4.04102C8.59617 4.04102 8.93496 4.3798 8.93496 4.79766C8.93496 5.21551 8.59617 5.5543 8.17832 5.5543H3.57922C3.16137 5.5543 2.82254 5.21551 2.82254 4.79766C2.82254 4.3798 3.16133 4.04102 3.57922 4.04102H8.17832Z" fill="#6B7280"/>
</g>
<defs>
<clipPath id="clip0_21030_12485">
<rect width="20" height="20" fill="white" transform="translate(2 2)"/>
</clipPath>
</defs>
</svg>
