<svg width="28" height="28" viewBox="0 0 28 28" fill="none" xmlns="http://www.w3.org/2000/svg">
<rect x="1" y="1" width="26" height="26" rx="9" fill="#6085FF"/>
<path d="M19.7293 7.75008H18.1668V6.05737C18.1668 5.84253 17.991 5.66675 17.7762 5.66675H16.4741C16.2593 5.66675 16.0835 5.84253 16.0835 6.05737V7.75008H11.9168V6.05737C11.9168 5.84253 11.741 5.66675 11.5262 5.66675H10.2241C10.0093 5.66675 9.8335 5.84253 9.8335 6.05737V7.75008H8.271C7.40837 7.75008 6.7085 8.44995 6.7085 9.31258V20.7709C6.7085 21.6335 7.40837 22.3334 8.271 22.3334H19.7293C20.592 22.3334 21.2918 21.6335 21.2918 20.7709V9.31258C21.2918 8.44995 20.592 7.75008 19.7293 7.75008ZM19.534 20.7709H8.46631C8.35889 20.7709 8.271 20.683 8.271 20.5756V10.8751H19.7293V20.5756C19.7293 20.683 19.6414 20.7709 19.534 20.7709Z" fill="white"/>
<rect x="1" y="1" width="26" height="26" rx="9" stroke="#BFCEFE" stroke-width="2"/>
</svg>
